<svg width="217" height="30" viewBox="0 0 217 30" xmlns="http://www.w3.org/2000/svg">
    <g fill="none" fill-rule="evenodd">
        <path d="M194.293 9.873c.655 0 1.174.082 1.583.273.41.191.819.492 1.256.901V9.928h3.766v11.9c0 1.53-.518 2.785-1.583 3.74-1.064.983-2.456 1.474-4.176 1.474v.055c-1.065 0-1.993-.11-2.73-.355-.737-.246-1.419-.682-2.074-1.31l2.43-2.43c.272.273.6.492.982.628.355.137.764.191 1.2.191.738 0 1.256-.19 1.584-.6.328-.382.491-.846.491-1.365v-.928c-.71.71-1.637 1.065-2.756 1.065-1.229 0-2.184-.328-2.812-.956-.628-.628-1.037-1.31-1.174-2.02-.136-.71-.19-1.72-.19-3.084 0-1.42.054-2.457.19-3.112.137-.655.519-1.31 1.174-1.965.655-.655 1.61-.983 2.839-.983zM40.32 5.683c1.734 0 3.19.495 4.397 1.501 1.208 1.007 1.951 2.478 2.276 4.413h-4.397c-.17-.65-.418-1.161-.743-1.533-.326-.371-.837-.542-1.502-.542-.387 0-.728.062-1.007.186-.279.124-.51.31-.712.573-.201.263-.356.681-.465 1.27-.108.588-.17 1.595-.17 3.05 0 1.502.047 2.509.155 3.05.093.542.31 1.007.62 1.425.309.418.85.62 1.61.62.665 0 1.16-.156 1.486-.45.34-.294.588-.712.759-1.223h4.397c-.31 1.812-1.068 3.19-2.26 4.119-1.193.944-2.664 1.409-4.413 1.409l-.031.015c-1.936 0-3.453-.542-4.522-1.61-1.068-1.068-1.687-2.106-1.873-3.128-.186-1.006-.279-2.415-.279-4.211 0-1.874.093-3.298.263-4.258s.635-1.812 1.363-2.555c.743-.743 1.517-1.285 2.338-1.61.82-.341 1.719-.511 2.71-.511zm20.872.154v3.856h-7.634v2.942h6.519v3.855h-6.519v3.081h7.634v3.856H49.254V5.837h11.938zm10.018 0c1.873 0 3.344.558 4.413 1.673 1.068 1.114 1.594 2.446 1.594 3.979 0 1.1-.278 2.044-.836 2.833a5.648 5.648 0 0 1-2.028 1.766l3.793 7.323h-5l-3.113-6.534h-1.456v6.534h-4.32V5.837h6.953zm21.058-.015v3.855h-4.32v13.719h-4.32V9.677h-4.32V5.822h12.96zm6.828 0v17.574h-4.32V5.822h4.32zm7.34 0 5.62 8.841V5.822h4.32v17.574h-3.778l-5.62-8.841v8.84h-4.32V5.823h3.777zm21.429 0 6.394 17.574h-4.505l-.82-2.617h-5.405l-.867 2.617h-4.521l6.395-17.574h3.329zm12.495 0V19.54h7.386v3.856H136.04V5.822h4.32zm21.178 4.133c1.775 0 3.194.574 4.204 1.72 1.01 1.146 1.528 2.593 1.528 4.34v1.72h-7.642c0 .545.19 1.037.6 1.419.41.382.956.573 1.638.573.655 0 1.174-.082 1.529-.246.354-.163.71-.436 1.119-.818l2.32 2.32c-.683.682-1.42 1.2-2.157 1.528-.737.328-1.665.491-2.811.491-1.747 0-3.194-.464-4.34-1.392-1.146-.928-1.72-2.647-1.72-5.131 0-2.047.52-3.63 1.584-4.804 1.064-1.146 2.429-1.72 4.148-1.72zm13.757-4.149c1.256 0 2.32.164 3.248.464.901.3 1.72.82 2.457 1.556l-2.62 2.62a3.07 3.07 0 0 0-1.174-.736 5.159 5.159 0 0 0-1.72-.273h-.3c-.682 0-1.2.163-1.528.464-.328.3-.519.682-.519 1.092 0 .163.027.327.082.436.054.11.136.246.273.355.109.11.273.218.437.3.163.082.409.137.71.191l2.046.273c1.474.219 2.512.6 3.112 1.174.573.573.983 1.174 1.174 1.774.19.6.3 1.338.3 2.157 0 1.637-.628 2.947-1.856 3.903-1.228.955-2.784 1.42-4.668 1.42l-.054.026c-1.42 0-2.62-.163-3.63-.49-1.01-.328-1.938-.902-2.757-1.748l2.647-2.647c.41.41.956.71 1.638.9a7.915 7.915 0 0 0 2.156.273c1.61 0 2.43-.518 2.43-1.528 0-.437-.082-.737-.246-.901-.164-.164-.328-.3-.519-.382-.163-.082-.409-.137-.682-.164l-2.047-.273c-1.501-.218-2.648-.737-3.412-1.501-.764-.792-1.146-1.91-1.146-3.385 0-1.556.545-2.838 1.665-3.848 1.119-1.01 2.62-1.502 4.503-1.502zm12.31 4.777V22.84h-3.903V10.583h3.903zm23.01-.71c.6 0 1.147.082 1.61.273.465.191.929.492 1.366.928.436.437.737.928.9 1.529.164.573.273 1.256.273 2.02v8.161h-3.903V15.17c0-.655-.164-1.092-.491-1.365a1.6 1.6 0 0 0-1.065-.382c-.382 0-.737.136-1.064.382-.328.273-.492.71-.492 1.365v7.642h-3.903V10.037h3.794v1.037a4.05 4.05 0 0 1 1.365-.873 4.246 4.246 0 0 1 1.61-.328zm-15.121 3.549c-.492 0-.874.164-1.12.491-.272.328-.381 1.01-.381 2.047 0 1.065.109 1.747.354 2.075.246.327.628.464 1.147.464.491 0 .873-.164 1.119-.492.273-.327.382-1.01.382-2.047 0-1.064-.11-1.747-.355-2.074-.245-.328-.628-.464-1.146-.464zm-69.178-.927-1.579 4.692h3.066l-1.487-4.692zm35.195.654c-.437 0-.791.112-1.092.374-.273.262-.491.56-.627.972-.137.411-.192.86-.192 1.383h3.795c0-.336 0-.56-.028-.747a3.123 3.123 0 0 0-.19-.636l.026.037c-.136-.448-.354-.785-.6-1.01a1.663 1.663 0 0 0-1.092-.373zm-90.487-3.44h-2.447v3.56h2.447c.573 0 1.037-.17 1.362-.526.341-.356.511-.774.511-1.239 0-.48-.17-.898-.51-1.238-.341-.356-.79-.527-1.363-.527v-.03zm116.581-3.903v2.976h-3.903V5.806h3.903z" fill="#ffffff"/>
        <path d="M16.072.666v.03l8.083 4.677c1.47.851 2.57 2.679 2.647 4.382-.31-1.115-1.068-2.183-2.044-2.74l-3.313-1.92-3.314-1.92c-1.27-.729-3.112-.729-4.366 0l-3.313 1.92-3.314 1.92c-1.27.727-2.183 2.322-2.183 3.793v7.649c0 1.455.929 3.065 2.183 3.793l3.314 1.92 3.313 1.92c1.27.728 3.112.728 4.366 0l3.314-1.92 3.313-1.92c.96-.557 1.735-1.61 2.044-2.74-.093 1.718-1.176 3.545-2.647 4.381l-8.083 4.676c-1.533.883-3.793.883-5.326 0l-8.083-4.676C1.13 23.01 0 21.058 0 19.277V9.956c0-1.78 1.13-3.716 2.663-4.614l4.041-2.338L10.746.666c1.533-.883 3.778-.883 5.326 0zm.217 5.357 1.044.533c2.267 1.156 4.544 2.351 6.45 3.988v.016L23.768 12l.004.444c.022 3.827-.347 7.01-6.028 9.992l-1.44.759-1.548-.76C9.538 19.449 8.903 16.956 8.733 12l-.016-1.487c2.245-1.858 4.94-3.205 7.572-4.49z" fill="#ffffff"/>
    </g>
</svg>
