<svg width="303" height="50" viewBox="0 0 303 50" xmlns="http://www.w3.org/2000/svg">
    <defs>
        <linearGradient x1="5.056%" y1="50.661%" x2="140.041%" y2="49.502%" id="llybv64gea">
            <stop stop-color="#004867" offset="0%"/>
            <stop stop-color="#445E48" offset="46.986%"/>
            <stop stop-color="#BD8A00" offset="69.618%"/>
            <stop stop-color="#BD8A00" offset="100%"/>
        </linearGradient>
    </defs>
    <g fill="none" fill-rule="evenodd">
        <path fill="url(#llybv64gea)" d="M0 0h303v50H0z"/>
        <g fill="#FFF">
            <path d="M253.151 18.848c.786 0 1.409.098 1.9.328.491.229.983.59 1.507 1.08v-1.342h4.52v14.28c0 1.835-.622 3.341-1.9 4.488-1.277 1.179-2.948 1.769-5.011 1.769v.065c-1.278 0-2.391-.13-3.276-.426-.884-.294-1.703-.819-2.489-1.572l2.915-2.915c.328.328.72.59 1.18.753.425.164.916.23 1.44.23.885 0 1.507-.23 1.9-.721.393-.459.59-1.015.59-1.638v-1.113c-.852.851-1.965 1.277-3.308 1.277-1.474 0-2.62-.393-3.374-1.146-.753-.754-1.245-1.573-1.409-2.424-.163-.852-.229-2.064-.229-3.701 0-1.704.066-2.948.23-3.734.163-.786.622-1.573 1.408-2.359.786-.786 1.932-1.179 3.406-1.179zM68.384 13.82c2.08 0 3.827.595 5.276 1.802 1.45 1.208 2.342 2.973 2.732 5.296h-5.277c-.204-.78-.502-1.394-.892-1.84-.39-.446-1.003-.65-1.802-.65-.465 0-.874.074-1.208.223a2.162 2.162 0 0 0-.855.687c-.241.316-.427.818-.557 1.524-.13.706-.204 1.914-.204 3.66 0 1.803.055 3.01.185 3.66.112.651.372 1.208.744 1.71.371.502 1.021.743 1.932.743.799 0 1.393-.185 1.784-.538.408-.353.706-.855.91-1.468h5.277c-.372 2.174-1.282 3.827-2.713 4.942-1.43 1.134-3.196 1.69-5.295 1.69l-.037.02c-2.323 0-4.144-.65-5.426-1.933-1.282-1.282-2.025-2.527-2.248-3.753-.223-1.208-.335-2.899-.335-5.054 0-2.248.112-3.958.316-5.11.205-1.152.762-2.174 1.635-3.065.892-.892 1.821-1.543 2.806-1.933.985-.409 2.062-.613 3.252-.613zm25.046.186v4.626h-9.16v3.53h7.822v4.627H84.27v3.698h9.16v4.626H79.105V14.005H93.43zm12.022 0c2.248 0 4.013.669 5.295 2.007 1.282 1.337 1.914 2.935 1.914 4.775 0 1.319-.335 2.452-1.003 3.4-.67.929-1.487 1.635-2.435 2.118l4.553 8.789h-6.002l-3.734-7.841h-1.747v7.84h-5.184V14.006h8.343zm25.27-.019v4.627h-5.185v16.462h-5.184V18.613h-5.184v-4.627h15.552zm8.193 0v21.09h-5.184v-21.09h5.184zm8.807 0 6.745 10.61v-10.61h5.184v21.09h-4.534l-6.744-10.61v10.61h-5.184v-21.09h4.533zm25.716 0 7.673 21.09h-5.407l-.984-3.141h-6.485l-1.04 3.14h-5.426l7.674-21.089h3.995zm14.994 0V30.45h8.863v4.626h-14.047V13.986h5.184zm25.414 4.96c2.13 0 3.832.688 5.044 2.064 1.212 1.376 1.835 3.112 1.835 5.208v2.063h-9.172c0 .655.23 1.245.72 1.704.492.458 1.147.687 1.966.687.786 0 1.409-.098 1.834-.294.426-.197.852-.524 1.343-.983l2.784 2.784c-.818.819-1.703 1.441-2.587 1.834-.884.393-1.998.59-3.374.59-2.096 0-3.832-.557-5.208-1.67-1.375-1.114-2.063-3.178-2.063-6.158 0-2.457.622-4.357 1.9-5.765 1.277-1.376 2.915-2.064 4.978-2.064zm16.508-4.978c1.507 0 2.784.196 3.898.557 1.081.36 2.064.982 2.948 1.867l-3.144 3.144a3.683 3.683 0 0 0-1.409-.884c-.557-.197-1.245-.328-2.063-.328h-.36c-.82 0-1.442.197-1.835.557-.393.36-.622.819-.622 1.31 0 .197.033.393.098.524.066.131.164.295.328.426.13.131.327.262.524.36.196.099.49.164.851.23l2.457.327c1.769.262 3.013.72 3.734 1.409.688.687 1.179 1.408 1.408 2.129.23.72.36 1.604.36 2.587 0 1.965-.753 3.538-2.227 4.684-1.474 1.146-3.34 1.703-5.6 1.703l-.066.033c-1.703 0-3.145-.197-4.357-.59-1.211-.393-2.325-1.08-3.308-2.096l3.177-3.177c.492.491 1.147.852 1.966 1.08.819.23 1.67.328 2.587.328 1.933 0 2.915-.622 2.915-1.834 0-.524-.098-.884-.294-1.08-.197-.197-.393-.361-.623-.46-.196-.098-.491-.163-.819-.196l-2.456-.327c-1.802-.262-3.177-.885-4.094-1.802-.918-.95-1.376-2.293-1.376-4.061 0-1.867.655-3.407 1.998-4.619 1.343-1.212 3.144-1.801 5.404-1.801zm14.773 5.732v14.706h-4.684V19.7h4.684zm27.611-.852c.721 0 1.376.098 1.933.328.557.229 1.114.59 1.638 1.113a4.027 4.027 0 0 1 1.08 1.835c.197.687.328 1.506.328 2.423v9.794h-4.684v-9.139c0-.786-.196-1.31-.59-1.637a1.919 1.919 0 0 0-1.277-.459c-.458 0-.884.164-1.277.459-.393.327-.59.851-.59 1.637v9.172h-4.684v-15.33h4.553v1.245c.426-.425.983-.786 1.638-1.048a5.095 5.095 0 0 1 1.932-.393zm-18.145 4.258c-.59 0-1.049.197-1.343.59-.328.393-.459 1.212-.459 2.456 0 1.278.131 2.097.426 2.49.295.393.753.557 1.376.557.59 0 1.048-.197 1.342-.59.328-.393.459-1.212.459-2.457 0-1.277-.131-2.096-.426-2.489-.295-.393-.753-.557-1.375-.557zm-83.014-1.111-1.895 5.63h3.68l-1.785-5.63zm42.234.784c-.524 0-.95.134-1.31.448-.327.314-.59.673-.753 1.167-.164.494-.23 1.032-.23 1.66h4.553c0-.404 0-.673-.032-.897a3.747 3.747 0 0 0-.23-.763l.033.045c-.164-.539-.426-.942-.72-1.212-.328-.269-.754-.448-1.31-.448zM105.23 18.65h-2.936v4.273h2.936c.687 0 1.245-.204 1.635-.631.409-.428.613-.93.613-1.487 0-.576-.204-1.077-.613-1.486-.409-.427-.948-.632-1.635-.632v-.037zm139.898-4.682v3.57h-4.684v-3.57h4.684zM39.287 7.799v.037l4.85 2.806 4.849 2.805c1.765 1.022 3.084 3.215 3.177 5.259-.372-1.338-1.282-2.62-2.453-3.289l-3.976-2.304-3.976-2.304c-1.524-.873-3.735-.873-5.24 0l-3.976 2.304-3.976 2.304c-1.524.873-2.62 2.787-2.62 4.552v9.179c0 1.747 1.115 3.679 2.62 4.552l3.976 2.304 3.976 2.304c1.524.873 3.735.873 5.24 0l3.976-2.304L49.71 33.7c1.152-.669 2.081-1.932 2.453-3.289-.112 2.063-1.412 4.255-3.177 5.259l-4.85 2.805-4.85 2.806c-1.839 1.06-4.552 1.06-6.391 0l-4.85-2.806-4.85-2.805C21.357 34.61 20 32.27 20 30.133V18.947c0-2.137 1.356-4.46 3.196-5.537l4.85-2.805 4.849-2.806c1.84-1.06 4.533-1.06 6.392 0zm.26 6.429.586.3 1.177.6c2.55 1.308 5.086 2.684 7.23 4.525v.019L48.52 21.4c.056 4.83-.149 8.807-7.228 12.523l-1.728.91-1.858-.91c-6.261-3.586-7.023-6.577-7.228-12.523l-.018-1.784c2.694-2.23 5.927-3.846 9.086-5.388z"/>
        </g>
    </g>
</svg>
