<svg xmlns="http://www.w3.org/2000/svg" xmlns:xlink="http://www.w3.org/1999/xlink" width="320" height="180" stroke="#000" stroke-linecap="round" stroke-linejoin="round" fill="#fff" fill-rule="evenodd"><g stroke="none"><use xlink:href="#B"/><use xlink:href="#C"/><use xlink:href="#B"/><path d="M188.36 94.19q0 .71.41 1.1.4.39 1.14.39.72 0 1.13-.4.4-.4.4-1.1 0-.72-.4-1.1-.4-.39-1.13-.39-.76 0-1.15.38-.3995.3795-.4 1.12z"/><use xlink:href="#C"/><use xlink:href="#D"/><path d="M188.36 94.1948q.004.7091.41 1.0952.4.39 1.14.39.72 0 1.13-.4.4-.4.4-1.1 0-.72-.4-1.1-.4-.39-1.13-.39-.76 0-1.15.38-.4.38-.4 1.1248zm-18.94-3.4132q0-.0087 0 0l.0028 4.6583h-2.6807v-9.8261h2.0479l.3603 1.2568.1497-.0006q.46-.71 1.23-1.08.79-.36 1.79-.36 1.72 0 2.6.93.89.92.89 2.67l.0024 6.4099h-2.6807L173.13 89.7q0-1.06-.38-1.59-.37-.54-1.2-.54-1.13 0-1.63.76-.488.7369-.5 2.4516z"/><use xlink:href="#D"/><use xlink:href="#E"/><path d="M169.4228 90.8169v4.623h-2.6807v-9.8261h2.0479l.3603 1.2568h.1494q.4577-.7141 1.2303-1.0806.79-.36 1.79-.36 1.72 0 2.6.93.89.92.89 2.67l.0024 6.4099h-2.6807L173.13 89.7q0-1.06-.38-1.59-.37-.54-1.2-.54-1.13 0-1.63.76-.5.75-.4972 2.4869zm-13.4824-.2548v.2312q-.0424 1.4893-.5204 2.0867-.48.6-1.51.6-.93 0-1.43-.73-.5-.72-.5-2.17 0-1.45.49-2.21.5-.76 1.4-.76 1.09 0 1.58.68.49.69.4904 2.2721z"/><use xlink:href="#E"/><path d="M129.98 90.51q0-.0126 0 0 .0024-1.4737.47-2.19.48-.73 1.55-.73 1.08 0 1.55.73.48.73.48 2.19 0 1.47-.47 2.21-.47.74-1.54.74-1.08 0-1.56-.74-.4776-.7462-.48-2.21z"/><path d="M-.5-.5h320v180H-.5zm126.3202 95.94h-7.9365V82.5904h2.7246V93.19h5.2119zm4.1598-4.93q0-.0126 0 0 .0024-1.4737.47-2.19.48-.73 1.55-.73 1.08 0 1.55.73.48.73.48 2.19 0 1.47-.47 2.21-.47.74-1.54.74-1.08 0-1.56-.74-.4776-.7462-.48-2.21z"/><g fill="#000"><path d="M125.8202 95.44h-7.9365V82.5904h2.7246V93.19h5.2119v2.25zm4.1573-4.9307q0 1.459.479 2.206.479.7471 1.5601.7471 1.0722 0 1.5424-.7427.4703-.7426.4703-2.2104 0-1.459-.4747-2.1885-.4746-.7295-1.5556-.7295-1.0723 0-1.5469.7251-.4746.7251-.4746 2.1929zm6.7939 0q0 2.3994-1.2656 3.7529-1.2656 1.3535-3.5244 1.3535-1.415 0-2.4961-.6196-1.081-.6196-1.6611-1.7798-.5801-1.1601-.5801-2.707 0-2.4082 1.2568-3.7442 1.2569-1.3359 3.5332-1.3359 1.4151 0 2.4961.6152 1.0811.6153 1.6612 1.7666.58 1.1514.58 2.6983zm10.3273 4.9306h-1.8721l-.5185-1.3359h-.0703q-.6768.8525-1.3931 1.1821-.7163.3296-1.8677.3296-1.415 0-2.228-.8086-.813-.8086-.813-2.3027 0-1.5645 1.0942-2.3072 1.0943-.7426 3.3003-.8217l1.7051-.0528v-.4306q0-1.4942-1.5293-1.4942-1.1777 0-2.7685.7119l-.8877-1.8105q1.6963-.8877 3.7617-.8877 1.9775 0 3.0322.8613 1.0547.8614 1.0547 2.6192v6.5478zm-2.6631-3.7441v-.8086l-1.0371.0351q-1.1689.0352-1.7402.4219-.5713.3867-.5713 1.1778 0 1.1337 1.3008 1.1337.9316 0 1.4897-.5361.5581-.5361.5581-1.4238zm8.5341 3.92q-1.7315 0-2.7202-1.3448-.9888-1.3447-.9888-3.7265 0-2.417 1.0063-3.7661 1.0064-1.3492 2.773-1.3492 1.8545 0 2.8301 1.4414h.0879q-.2022-1.0986-.2022-1.9599v-3.1465h2.6895V95.44h-2.0567l-.5185-1.2744h-.1143q-.914 1.4502-2.7861 1.4502zm.9404-2.1358q1.0283 0 1.5073-.5976.479-.5977.523-2.0303v-.29q0-1.5821-.4878-2.2676-.4878-.6856-1.5864-.6856-.8965 0-1.3931.7603-.4966.7602-.4966 2.2104 0 1.4502.501 2.1753.501.7251 1.4326.7251zm7.2246-10.4062q0-1.3096 1.459-1.3096 1.459 0 1.459 1.3096 0 .624-.3648.9712-.3647.3471-1.0942.3471-1.459 0-1.459-1.3183zm2.7949 2.54V95.44h-2.6806v-9.8262h2.6806zm11.8828 3.4189v6.4072h-2.6807v-5.7392q0-1.0635-.3779-1.5952-.3779-.5318-1.2041-.5318-1.125 0-1.626.7515-.5009.7515-.5009 2.4917v4.623h-2.6807v-9.8261h2.0479l.3603 1.2568h.1494q.4483-.7119 1.2349-1.0767.7866-.3647 1.7886-.3647 1.7138 0 2.6015.9272.8877.9273.8877 2.6763zm7.8839-3.4189h3.4278v1.3623l-1.5381.3955q.4219.6592.4219 1.4765 0 1.5821-1.1031 2.4654-1.103.8833-3.063.8833l-.4834-.0264-.3955-.0439q-.413.3164-.413.7031 0 .5801 1.4765.5801h1.6699q1.6172 0 2.4654.6943.8481.6943.8481 2.0391 0 1.7226-1.437 2.6718-1.437.9493-4.1265.9493-2.0566 0-3.1421-.7163-1.0854-.7164-1.0854-2.0083 0-.8877.5537-1.4854.5537-.5977 1.626-.8525-.4131-.1758-.7207-.5757-.3076-.3999-.3076-.8482 0-.5625.3252-.936.3252-.3735.9404-.7339-.7734-.334-1.2261-1.0723-.4526-.7382-.4526-1.7402 0-1.6084 1.0459-2.4873 1.0459-.8789 2.9883-.8789.413 0 .9799.0747.5669.0747.7251.1099zm-4.1572 11.2148q0 .5537.5318.8701.5317.3164 1.4897.3164 1.4414 0 2.2588-.3955.8174-.3955.8174-1.081 0-.5537-.4834-.7647-.4834-.2109-1.4942-.2109h-1.3886q-.7383 0-1.2349.3472-.4966.3471-.4966.9184zm.9756-7.998q0 .7998.3647 1.2656.3648.4658 1.1119.4658.7558 0 1.1074-.4658.3515-.4658.3515-1.2656 0-1.7754-1.4589-1.7754-1.4766 0-1.4766 1.7754z"/><use xlink:href="#F"/><use xlink:href="#F" x="5.1328"/><use xlink:href="#F" x="10.2656"/></g></g><defs ><path id="B" d="M199.03 95.29q.41.39 1.15.39.72 0 1.12-.4.41-.4.41-1.1 0-.72-.4-1.1-.4-.39-1.13-.39-.76 0-1.16.38-.39.38-.39 1.11 0 .72.4 1.11z"/><path id="C" d="M193.9 95.29q.4.39 1.14.39.72 0 1.13-.4.4-.4.4-1.1 0-.72-.4-1.1-.4-.39-1.13-.39-.75 0-1.15.38-.39.38-.39 1.11 0 .72.4 1.11z"/><path id="D" d="M181.99 87.06q1.46 0 1.46 1.77 0 .8-.35 1.27-.35.46-1.11.46-.75 0-1.11-.46-.37-.47-.37-1.27 0-1.77 1.48-1.77z"/><path id="E" d="M162.59 84.39q.73 0 1.1-.34.36-.35.36-.98 0-1.31-1.46-1.31-1.46 0-1.46 1.31 0 1.32 1.46 1.32z"/><path id="F" d="M188.3633 94.1832q0-.7382.3955-1.1162.3955-.3779 1.1514-.3779.7295 0 1.1294.3867.3999.3867.3999 1.1074 0 .6944-.4043 1.0943-.4043.3999-1.125.3999-.7383 0-1.1426-.3911-.4043-.3911-.4043-1.1031z"/></defs></svg>