<svg xmlns="http://www.w3.org/2000/svg" width="66" height="66" viewBox="0 0 66 66">
    <g fill="none" fill-rule="evenodd">
        <g>
            <g>
                <g transform="translate(-608 -293) translate(345 170) translate(263 123)">
                    <circle cx="33" cy="33" r="33" fill="#F3F3F3"/>
                    <g fill="#686868" fill-rule="nonzero">
                        <path d="M18.035 11.695L10.436 19.293 12.421 21.278 16.632 17.068 16.632 31.013 19.439 31.013 19.439 17.068 23.649 21.278 25.634 19.293z" transform="translate(15 17)"/>
                        <path d="M29.259 11.122C29.093 4.997 24.059.065 17.895.065c-2.832 0-5.545 1.048-7.64 2.95C8.45 4.655 7.23 6.81 6.752 9.17c-1.706.367-3.264 1.25-4.469 2.548C.811 13.306 0 15.373 0 17.54c0 4.72 3.84 8.561 8.561 8.561h1.474v-2.807H8.553c-3.169-.004-5.746-2.584-5.746-5.754 0-2.979 2.323-5.498 5.287-5.735l1.165-.094.12-1.162c.449-4.376 4.11-7.676 8.516-7.676 4.72 0 8.561 3.84 8.561 8.562v2.456h2.035c2.593 0 4.702 2.109 4.702 4.702 0 2.592-2.11 4.701-4.702 4.701h-2.456V26.1h2.456c4.14 0 7.509-3.368 7.509-7.508 0-3.882-2.96-7.085-6.741-7.47z" transform="translate(15 17)"/>
                    </g>
                </g>
            </g>
        </g>
    </g>
</svg>
