<?xml version="1.0" encoding="UTF-8" standalone="no"?>
<!DOCTYPE svg PUBLIC "-//W3C//DTD SVG 1.1//EN" "http://www.w3.org/Graphics/SVG/1.1/DTD/svg11.dtd">
<svg version="1.1" xmlns="http://www.w3.org/2000/svg" xmlns:xlink="http://www.w3.org/1999/xlink" preserveAspectRatio="xMidYMid meet" viewBox="0 0 16 16" width="16" height="16"><defs><path d="M8.23 14C6.57 14 5.27 13.43 4.34 12.29C3.45 11.21 3 9.78 3 8C3 6.16 3.49 4.69 4.47 3.6C5.43 2.53 6.68 2 8.24 2C9.58 2 10.62 2.29 11.38 2.88C12.01 3.4 12.54 4.25 12.97 5.42C12.68 5.54 10.37 6.46 10.08 6.57C9.85 5.96 9.62 5.53 9.39 5.29C9.1 4.97 8.71 4.81 8.23 4.81C7.6 4.81 7.12 5.11 6.79 5.71C6.48 6.26 6.33 7.02 6.33 8C6.33 8.95 6.48 9.71 6.79 10.26C7.12 10.88 7.61 11.19 8.26 11.19C8.73 11.19 9.12 11.05 9.43 10.78C9.68 10.57 9.97 10.16 10.31 9.55C10.49 9.64 11.39 10.12 13 10.99C11.27 13 9.68 14 8.23 14Z" id="evZVeHqCZ"></path></defs><g><g><g><use xlink:href="#evZVeHqCZ" opacity="1" fill="#ffffff" fill-opacity="1"></use><g><use xlink:href="#evZVeHqCZ" opacity="1" fill-opacity="0" stroke="#000000" stroke-width="1" stroke-opacity="0"></use></g></g></g></g></svg>