<svg xmlns="http://www.w3.org/2000/svg" width="16" height="16" viewBox="0 0 16 16">
    <g fill="none" fill-rule="evenodd">
        <g>
            <g>
                <path fill="#004867" d="M0 0H16V16H0z" transform="translate(-40 -1149) translate(40 1149)"/>
                <path fill="#FFF" d="M13 10.992C11.995 12.997 10.404 14 8.23 14c-1.662 0-2.957-.57-3.886-1.712C3.448 11.213 3 9.784 3 8c0-1.84.492-3.307 1.475-4.404C5.426 2.532 6.683 2 8.245 2c1.334 0 2.378.294 3.132.88.634.522 1.164 1.37 1.59 2.544L10.082 6.57c-.23-.61-.46-1.036-.689-1.28-.295-.321-.683-.482-1.164-.482-.633 0-1.114.299-1.442.897-.306.554-.46 1.319-.46 2.294 0 .953.154 1.706.46 2.26.328.62.82.931 1.475.931.47 0 .858-.138 1.164-.415.252-.21.547-.62.885-1.23L13 10.992z" transform="translate(-40 -1149) translate(40 1149)"/>
            </g>
        </g>
    </g>
</svg>
